<svg width="125" height="19" viewBox="0 0 125 19" fill="none" xmlns="http://www.w3.org/2000/svg">
<path d="M5.864 5.04002C7.752 5.04002 9.192 5.49602 10.184 6.40802C11.192 7.30402 11.696 8.66402 11.696 10.488V18H8.864V16.44C8.496 17 7.968 17.432 7.28 17.736C6.608 18.024 5.792 18.168 4.832 18.168C3.872 18.168 3.032 18.008 2.312 17.688C1.592 17.352 1.032 16.896 0.632 16.32C0.248 15.728 0.0559998 15.064 0.0559998 14.328C0.0559998 13.176 0.48 12.256 1.328 11.568C2.192 10.864 3.544 10.512 5.384 10.512H8.696V10.32C8.696 9.42402 8.424 8.73602 7.88 8.25602C7.352 7.77602 6.56 7.53602 5.504 7.53602C4.784 7.53602 4.072 7.64802 3.368 7.87202C2.68 8.09602 2.096 8.40802 1.616 8.80802L0.44 6.62402C1.112 6.11202 1.92 5.72002 2.864 5.44802C3.808 5.17602 4.808 5.04002 5.864 5.04002ZM5.456 15.984C6.208 15.984 6.872 15.816 7.448 15.48C8.04 15.128 8.456 14.632 8.696 13.992V12.504H5.6C3.872 12.504 3.008 13.072 3.008 14.208C3.008 14.752 3.224 15.184 3.656 15.504C4.088 15.824 4.688 15.984 5.456 15.984Z" fill="black"/>
<path d="M18.4021 7.05602C19.2661 5.71202 20.7861 5.04002 22.9621 5.04002V7.89602C22.7061 7.84802 22.4741 7.82402 22.2661 7.82402C21.0981 7.82402 20.1861 8.16802 19.5301 8.85602C18.8741 9.52802 18.5461 10.504 18.5461 11.784V18H15.5461V5.18402H18.4021V7.05602Z" fill="black"/>
<path d="M37.9419 0.192017V18H35.0619V16.344C34.5659 16.952 33.9499 17.408 33.2139 17.712C32.4939 18.016 31.6939 18.168 30.8139 18.168C29.5819 18.168 28.4699 17.896 27.4779 17.352C26.5019 16.808 25.7339 16.04 25.1739 15.048C24.6139 14.04 24.3339 12.888 24.3339 11.592C24.3339 10.296 24.6139 9.15202 25.1739 8.16002C25.7339 7.16802 26.5019 6.40002 27.4779 5.85602C28.4699 5.31202 29.5819 5.04002 30.8139 5.04002C31.6619 5.04002 32.4379 5.18402 33.1419 5.47202C33.8459 5.76002 34.4459 6.19202 34.9419 6.76802V0.192017H37.9419ZM31.1739 15.6C31.8939 15.6 32.5419 15.44 33.1179 15.12C33.6939 14.784 34.1499 14.312 34.4859 13.704C34.8219 13.096 34.9899 12.392 34.9899 11.592C34.9899 10.792 34.8219 10.088 34.4859 9.48002C34.1499 8.87202 33.6939 8.40802 33.1179 8.08802C32.5419 7.75202 31.8939 7.58402 31.1739 7.58402C30.4539 7.58402 29.8059 7.75202 29.2299 8.08802C28.6539 8.40802 28.1979 8.87202 27.8619 9.48002C27.5259 10.088 27.3579 10.792 27.3579 11.592C27.3579 12.392 27.5259 13.096 27.8619 13.704C28.1979 14.312 28.6539 14.784 29.2299 15.12C29.8059 15.44 30.4539 15.6 31.1739 15.6Z" fill="black"/>
<path d="M51.8744 15.6V18H40.8104V16.104L47.8424 7.58402H40.9544V5.18402H51.6824V7.08002L44.6264 15.6H51.8744Z" fill="black"/>
<path d="M60.3324 18.168C59.0044 18.168 57.8124 17.888 56.7564 17.328C55.7004 16.768 54.8764 15.992 54.2844 15C53.6924 13.992 53.3964 12.856 53.3964 11.592C53.3964 10.328 53.6924 9.20002 54.2844 8.20802C54.8764 7.21602 55.6924 6.44002 56.7324 5.88002C57.7884 5.32002 58.9884 5.04002 60.3324 5.04002C61.5964 5.04002 62.7004 5.29602 63.6444 5.80802C64.6044 6.32002 65.3244 7.05602 65.8044 8.01602L63.5004 9.36002C63.1324 8.76802 62.6684 8.32802 62.1084 8.04002C61.5644 7.73602 60.9644 7.58402 60.3084 7.58402C59.1884 7.58402 58.2604 7.95202 57.5244 8.68802C56.7884 9.40802 56.4204 10.376 56.4204 11.592C56.4204 12.808 56.7804 13.784 57.5004 14.52C58.2364 15.24 59.1724 15.6 60.3084 15.6C60.9644 15.6 61.5644 15.456 62.1084 15.168C62.6684 14.864 63.1324 14.416 63.5004 13.824L65.8044 15.168C65.3084 16.128 64.5804 16.872 63.6204 17.4C62.6764 17.912 61.5804 18.168 60.3324 18.168Z" fill="black"/>
<path d="M73.9702 18.168C72.6742 18.168 71.5062 17.888 70.4662 17.328C69.4262 16.768 68.6102 15.992 68.0182 15C67.4422 13.992 67.1542 12.856 67.1542 11.592C67.1542 10.328 67.4422 9.20002 68.0182 8.20802C68.6102 7.21602 69.4262 6.44002 70.4662 5.88002C71.5062 5.32002 72.6742 5.04002 73.9702 5.04002C75.2822 5.04002 76.4582 5.32002 77.4982 5.88002C78.5382 6.44002 79.3462 7.21602 79.9222 8.20802C80.5142 9.20002 80.8102 10.328 80.8102 11.592C80.8102 12.856 80.5142 13.992 79.9222 15C79.3462 15.992 78.5382 16.768 77.4982 17.328C76.4582 17.888 75.2822 18.168 73.9702 18.168ZM73.9702 15.6C75.0742 15.6 75.9862 15.232 76.7062 14.496C77.4262 13.76 77.7862 12.792 77.7862 11.592C77.7862 10.392 77.4262 9.42402 76.7062 8.68802C75.9862 7.95202 75.0742 7.58402 73.9702 7.58402C72.8662 7.58402 71.9542 7.95202 71.2342 8.68802C70.5302 9.42402 70.1782 10.392 70.1782 11.592C70.1782 12.792 70.5302 13.76 71.2342 14.496C71.9542 15.232 72.8662 15.6 73.9702 15.6Z" fill="black"/>
<path d="M96.2309 0.192017V18H93.3509V16.344C92.8549 16.952 92.2389 17.408 91.5029 17.712C90.7829 18.016 89.9829 18.168 89.1029 18.168C87.8709 18.168 86.7589 17.896 85.7669 17.352C84.7909 16.808 84.0229 16.04 83.4629 15.048C82.9029 14.04 82.6229 12.888 82.6229 11.592C82.6229 10.296 82.9029 9.15202 83.4629 8.16002C84.0229 7.16802 84.7909 6.40002 85.7669 5.85602C86.7589 5.31202 87.8709 5.04002 89.1029 5.04002C89.9509 5.04002 90.7269 5.18402 91.4309 5.47202C92.1349 5.76002 92.7349 6.19202 93.2309 6.76802V0.192017H96.2309ZM89.4629 15.6C90.1829 15.6 90.8309 15.44 91.4069 15.12C91.9829 14.784 92.4389 14.312 92.7749 13.704C93.1109 13.096 93.2789 12.392 93.2789 11.592C93.2789 10.792 93.1109 10.088 92.7749 9.48002C92.4389 8.87202 91.9829 8.40802 91.4069 8.08802C90.8309 7.75202 90.1829 7.58402 89.4629 7.58402C88.7429 7.58402 88.0949 7.75202 87.5189 8.08802C86.9429 8.40802 86.4869 8.87202 86.1509 9.48002C85.8149 10.088 85.6469 10.792 85.6469 11.592C85.6469 12.392 85.8149 13.096 86.1509 13.704C86.4869 14.312 86.9429 14.784 87.5189 15.12C88.0949 15.44 88.7429 15.6 89.4629 15.6Z" fill="black"/>
<path d="M112.203 11.664C112.203 11.872 112.188 12.168 112.156 12.552H102.1C102.276 13.496 102.731 14.248 103.467 14.808C104.219 15.352 105.148 15.624 106.252 15.624C107.66 15.624 108.819 15.16 109.731 14.232L111.34 16.08C110.764 16.768 110.036 17.288 109.156 17.64C108.276 17.992 107.283 18.168 106.179 18.168C104.771 18.168 103.532 17.888 102.46 17.328C101.388 16.768 100.556 15.992 99.9635 15C99.3875 13.992 99.0995 12.856 99.0995 11.592C99.0995 10.344 99.3795 9.22402 99.9395 8.23202C100.515 7.22402 101.307 6.44002 102.315 5.88002C103.323 5.32002 104.46 5.04002 105.724 5.04002C106.972 5.04002 108.084 5.32002 109.06 5.88002C110.052 6.42402 110.82 7.20002 111.364 8.20802C111.924 9.20002 112.203 10.352 112.203 11.664ZM105.724 7.44002C104.764 7.44002 103.947 7.72802 103.275 8.30402C102.619 8.86402 102.22 9.61602 102.076 10.56H109.348C109.22 9.63202 108.828 8.88002 108.172 8.30402C107.516 7.72802 106.7 7.44002 105.724 7.44002Z" fill="black"/>
<path d="M119.045 18.168C118.005 18.168 116.989 18.032 115.997 17.76C115.005 17.488 114.213 17.144 113.621 16.728L114.773 14.448C115.349 14.832 116.037 15.144 116.837 15.384C117.653 15.608 118.453 15.72 119.237 15.72C121.029 15.72 121.925 15.248 121.925 14.304C121.925 13.856 121.693 13.544 121.229 13.368C120.781 13.192 120.053 13.024 119.045 12.864C117.989 12.704 117.125 12.52 116.453 12.312C115.797 12.104 115.221 11.744 114.725 11.232C114.245 10.704 114.005 9.97602 114.005 9.04802C114.005 7.83202 114.509 6.86402 115.517 6.14402C116.541 5.40802 117.917 5.04002 119.645 5.04002C120.525 5.04002 121.405 5.14402 122.285 5.35202C123.165 5.54402 123.885 5.80802 124.445 6.14402L123.293 8.42402C122.205 7.78402 120.981 7.46402 119.621 7.46402C118.741 7.46402 118.069 7.60002 117.605 7.87202C117.157 8.12802 116.933 8.47202 116.933 8.90402C116.933 9.38402 117.173 9.72802 117.653 9.93602C118.149 10.128 118.909 10.312 119.933 10.488C120.957 10.648 121.797 10.832 122.453 11.04C123.109 11.248 123.669 11.6 124.133 12.096C124.613 12.592 124.853 13.296 124.853 14.208C124.853 15.408 124.333 16.368 123.293 17.088C122.253 17.808 120.837 18.168 119.045 18.168Z" fill="black"/>
</svg>
